<svg width="19" height="18" viewBox="0 0 19 18" fill="none" xmlns="http://www.w3.org/2000/svg">
<mask id="mask0_247_871" style="mask-type:luminance" maskUnits="userSpaceOnUse" x="0" y="0" width="19" height="18">
<rect x="0.354492" width="18" height="18" fill="white"/>
</mask>
<g mask="url(#mask0_247_871)">
<path fill-rule="evenodd" clip-rule="evenodd" d="M16.7086 7.53113H16.1045V7.5H9.35449V10.5H13.5931C12.9747 12.2464 11.3131 13.5 9.35449 13.5C6.86937 13.5 4.85449 11.4851 4.85449 9C4.85449 6.51488 6.86937 4.5 9.35449 4.5C10.5016 4.5 11.5452 4.93275 12.3399 5.63963L14.4612 3.51825C13.1217 2.26987 11.33 1.5 9.35449 1.5C5.21262 1.5 1.85449 4.85813 1.85449 9C1.85449 13.1419 5.21262 16.5 9.35449 16.5C13.4964 16.5 16.8545 13.1419 16.8545 9C16.8545 8.49713 16.8027 8.00625 16.7086 7.53113Z" fill="#FFC107"/>
<path fill-rule="evenodd" clip-rule="evenodd" d="M2.71924 5.50912L5.18336 7.31625C5.85011 5.6655 7.46486 4.5 9.35449 4.5C10.5016 4.5 11.5452 4.93275 12.3399 5.63962L14.4612 3.51825C13.1217 2.26987 11.33 1.5 9.35449 1.5C6.47374 1.5 3.97549 3.12637 2.71924 5.50912Z" fill="#FF3D00"/>
<path fill-rule="evenodd" clip-rule="evenodd" d="M9.35461 16.5C11.2919 16.5 13.0521 15.7586 14.383 14.553L12.0617 12.5888C11.3087 13.1591 10.3727 13.5 9.35461 13.5C7.40386 13.5 5.74748 12.2561 5.12348 10.5203L2.67773 12.4046C3.91898 14.8335 6.43973 16.5 9.35461 16.5Z" fill="#4CAF50"/>
<path fill-rule="evenodd" clip-rule="evenodd" d="M16.7086 7.53113H16.1045V7.5H9.35449V10.5H13.5931C13.2961 11.3389 12.7565 12.0623 12.0605 12.5891C12.0609 12.5888 12.0612 12.5887 12.0616 12.5884L14.3829 14.5526C14.2186 14.7019 16.8545 12.75 16.8545 9C16.8545 8.49713 16.8027 8.00625 16.7086 7.53113Z" fill="#1976D2"/>
</g>
</svg>
