<svg width="14" height="18" viewBox="0 0 14 18" fill="none" xmlns="http://www.w3.org/2000/svg">
<mask id="mask0_247_881" style="mask-type:luminance" maskUnits="userSpaceOnUse" x="0" y="0" width="14" height="18">
<rect x="0.104492" width="13.5" height="18" fill="white"/>
</mask>
<g mask="url(#mask0_247_881)">
<path fill-rule="evenodd" clip-rule="evenodd" d="M11.3088 9.44646C11.3018 8.15623 11.8854 7.1824 13.0666 6.46521C12.4057 5.51951 11.4072 4.9992 10.0889 4.89725C8.84082 4.79881 7.47676 5.62498 6.97754 5.62498C6.4502 5.62498 5.24082 4.9324 4.2916 4.9324C2.32988 4.96404 0.245117 6.49685 0.245117 9.61521C0.245117 10.5363 0.413867 11.4879 0.751367 12.4699C1.20137 13.7601 2.82559 16.9242 4.52012 16.8715C5.40605 16.8504 6.03184 16.2422 7.18496 16.2422C8.30293 16.2422 8.88301 16.8715 9.8709 16.8715C11.5795 16.8469 13.049 13.9711 13.4779 12.6773C11.1857 11.598 11.3088 9.51326 11.3088 9.44647L11.3088 9.44646ZM9.31893 3.67383C10.2787 2.53477 10.1908 1.49766 10.1627 1.125C9.31542 1.17422 8.33456 1.70156 7.77557 2.35195C7.16034 3.04805 6.79823 3.90937 6.87557 4.87969C7.79315 4.95 8.62987 4.47891 9.31893 3.67383Z" fill="black"/>
</g>
</svg>
