<svg width="19" height="18" viewBox="0 0 19 18" fill="none" xmlns="http://www.w3.org/2000/svg">
<mask id="mask0_247_877" style="mask-type:luminance" maskUnits="userSpaceOnUse" x="0" y="0" width="19" height="18">
<rect x="0.854492" width="18" height="18" fill="white"/>
</mask>
<g mask="url(#mask0_247_877)">
<path fill-rule="evenodd" clip-rule="evenodd" d="M9.85449 1.875C5.91947 1.875 2.7295 5.06496 2.72949 8.99998C2.72948 12.935 5.91944 16.125 9.85446 16.125C13.7895 16.125 16.9795 12.9351 16.9795 9.00003C16.9795 5.06501 13.7895 1.87503 9.85453 1.875H9.85449Z" fill="#039BE5"/>
<path fill-rule="evenodd" clip-rule="evenodd" d="M10.819 10.8885H12.6629L12.9524 9.01535H10.8186V7.9916C10.8186 7.21348 11.0729 6.52348 11.8008 6.52348H12.9704V4.88885C12.7649 4.8611 12.3303 4.80035 11.509 4.80035C9.79413 4.80035 8.78875 5.70598 8.78875 7.76923V9.01535H7.02588V10.8885H8.78875V16.0369C9.13788 16.0894 9.4915 16.125 9.8545 16.125C10.1826 16.125 10.5029 16.095 10.819 16.0522V10.8885Z" fill="white"/>
</g>
</svg>
